<svg width="3255" height="596" viewBox="0 0 3255 596" fill="none" xmlns="http://www.w3.org/2000/svg">
<path fill-rule="evenodd" clip-rule="evenodd" d="M342.002 157.908V0H251.236L342.002 157.908ZM171.004 596C257.719 596 329.846 531.217 341.192 447.81L244.752 281.804V400.842C244.752 441.332 211.525 474.533 171.004 474.533C130.484 474.533 97.2564 441.332 97.2564 400.842V0H22.698C9.73128 0 0.00627469 10.5272 0.00627469 22.6739V424.326C-0.804143 519.071 76.9959 596 171.004 596Z" fill="#035AA6"/>
<path fill-rule="evenodd" clip-rule="evenodd" d="M587.557 48.5867V23.4835C587.557 10.527 577.022 0.80957 564.865 0.80957H490.307V49.3965H587.557V48.5867ZM415.749 596C509.757 596 587.557 519.07 587.557 424.326V72.0704H490.307V398.413C490.307 438.902 457.08 472.103 416.559 472.103C397.919 472.103 380.901 464.815 367.934 453.478L308.773 556.32C337.948 582.233 375.228 596 415.749 596Z" fill="#035AA6"/>
<path fill-rule="evenodd" clip-rule="evenodd" d="M171.004 450.239C198.558 450.239 220.439 428.375 220.439 400.842V189.489L321.741 366.831C333.898 387.886 346.054 405.701 357.4 421.087C371.177 438.902 392.248 451.049 415.75 451.049C443.304 451.049 465.185 429.185 465.185 401.652V0.80957H366.314L367.935 251.032L221.25 1.61935L120.758 0.80957V401.652C121.568 427.565 143.45 450.239 171.004 450.239Z" fill="#1894D0"/>
<path d="M3211.52 350.5H3254.02V525.75H3214.02L3134.52 421V525.75H3091.77V350.5H3132.02L3211.77 456L3211.52 350.5Z" fill="#035AA6"/>
<path d="M2923.06 350.5H3061.31V387H2968.81V419.75H3052.31V456L2968.81 456.25V489.25H3063.81V525.75H2923.06V350.5ZM3000.81 295.25L3037.56 309.25L3001.31 338L2970.81 335.5L3000.81 295.25Z" fill="#035AA6"/>
<path d="M2858.45 525.75L2846.45 494.75H2770.7L2758.45 525.75H2711.45L2786.7 350.5H2833.7L2907.2 525.75H2858.45ZM2784.45 459.75H2832.95L2808.95 397.25L2784.45 459.75Z" fill="#035AA6"/>
<path d="M2703.57 468.75C2703.57 487.417 2698.07 501.917 2687.07 512.25C2676.24 522.583 2661.4 527.75 2642.57 527.75C2618.07 527.75 2597.74 518.333 2581.57 499.5L2602.57 468.25C2608.74 474.583 2615.07 479.5 2621.57 483C2628.07 486.333 2633.99 488 2639.32 488C2644.99 488 2649.4 486.25 2652.57 482.75C2655.9 479.25 2657.57 474.25 2657.57 467.75V388.25H2597.57V350.5H2703.57V468.75Z" fill="#035AA6"/>
<path d="M2375.7 350.5H2513.95V387H2421.45V419.75H2504.95V456L2421.45 456.25V489.25H2516.45V525.75H2375.7V350.5Z" fill="#035AA6"/>
<path d="M2259.8 350.5C2278.13 350.5 2294.3 354.167 2308.3 361.5C2322.46 368.833 2333.46 379.167 2341.3 392.5C2349.13 405.667 2353.05 420.833 2353.05 438C2353.05 455.167 2349.05 470.417 2341.05 483.75C2333.21 497.083 2322.05 507.417 2307.55 514.75C2293.21 522.083 2276.71 525.75 2258.05 525.75H2184.3V350.5H2259.8ZM2261.05 488.75C2269.88 488.75 2277.71 486.667 2284.55 482.5C2291.38 478.333 2296.71 472.417 2300.55 464.75C2304.38 457.083 2306.3 448.333 2306.3 438.5C2306.3 428.5 2304.21 419.667 2300.05 412C2296.05 404.333 2290.46 398.417 2283.3 394.25C2276.13 389.917 2267.96 387.75 2258.8 387.75H2230.05V488.75H2261.05Z" fill="#035AA6"/>
<path d="M1988 350.5H2033.75V486.75H2108V525.75H1988V350.5Z" fill="#035AA6"/>
<path d="M1923.39 525.75L1911.39 494.75H1835.64L1823.39 525.75H1776.39L1851.64 350.5H1898.64L1972.14 525.75H1923.39ZM1849.39 459.75H1897.89L1873.89 397.25L1849.39 459.75Z" fill="#035AA6"/>
<path d="M1717.86 350.5H1760.36V525.75H1720.36L1640.86 421V525.75H1598.11V350.5H1638.36L1718.11 456L1717.86 350.5Z" fill="#035AA6"/>
<path d="M1480.69 347.75C1498.52 347.75 1514.6 351.667 1528.94 359.5C1543.44 367.333 1554.77 378.083 1562.94 391.75C1571.27 405.417 1575.44 420.75 1575.44 437.75C1575.44 454.917 1571.27 470.417 1562.94 484.25C1554.77 498.083 1543.44 509 1528.94 517C1514.6 525 1498.52 529 1480.69 529C1462.85 529 1446.69 525.083 1432.19 517.25C1417.85 509.25 1406.52 498.333 1398.19 484.5C1390.02 470.5 1385.94 454.917 1385.94 437.75C1385.94 420.75 1390.02 405.417 1398.19 391.75C1406.52 378.083 1417.85 367.333 1432.19 359.5C1446.69 351.667 1462.85 347.75 1480.69 347.75ZM1481.19 386.5C1472.52 386.5 1464.44 388.75 1456.94 393.25C1449.6 397.75 1443.77 404 1439.44 412C1435.1 419.833 1432.94 428.5 1432.94 438C1432.94 447.667 1435.1 456.5 1439.44 464.5C1443.94 472.333 1449.85 478.583 1457.19 483.25C1464.52 487.75 1472.52 490 1481.19 490C1489.85 490 1497.77 487.75 1504.94 483.25C1512.27 478.583 1518.02 472.333 1522.19 464.5C1526.35 456.5 1528.44 447.667 1528.44 438C1528.44 428.5 1526.35 419.833 1522.19 412C1518.02 404 1512.27 397.75 1504.94 393.25C1497.77 388.75 1489.85 386.5 1481.19 386.5Z" fill="#035AA6"/>
<path d="M1317.35 350.5H1363.1V525.75H1317.35V350.5Z" fill="#035AA6"/>
<path d="M1271 410C1265.33 402.833 1258.58 397.167 1250.75 393C1242.92 388.667 1235.17 386.5 1227.5 386.5C1218.67 386.5 1210.58 388.75 1203.25 393.25C1196.08 397.583 1190.42 403.667 1186.25 411.5C1182.08 419.167 1180 427.75 1180 437.25C1180 446.75 1182.08 455.417 1186.25 463.25C1190.42 470.917 1196.08 477 1203.25 481.5C1210.58 485.833 1218.67 488 1227.5 488C1234.67 488 1242.17 486.167 1250 482.5C1257.83 478.833 1264.83 473.833 1271 467.5L1297.75 496.25C1288.25 506.25 1276.92 514.25 1263.75 520.25C1250.75 526.083 1237.83 529 1225 529C1207.67 529 1192 525 1178 517C1164 509 1153 498.083 1145 484.25C1137 470.417 1133 454.917 1133 437.75C1133 420.75 1137.08 405.417 1145.25 391.75C1153.42 378.083 1164.58 367.333 1178.75 359.5C1193.08 351.667 1209.08 347.75 1226.75 347.75C1239.75 347.75 1252.58 350.5 1265.25 356C1277.92 361.333 1288.67 368.667 1297.5 378L1271 410Z" fill="#035AA6"/>
<path d="M1084.28 525.75L1072.28 494.75H996.531L984.281 525.75H937.281L1012.53 350.5H1059.53L1133.03 525.75H1084.28ZM1010.28 459.75H1058.78L1034.78 397.25L1010.28 459.75Z" fill="#035AA6"/>
<path d="M878.75 350.5H921.25V525.75H881.25L801.75 421V525.75H759V350.5H799.25L879 456L878.75 350.5Z" fill="#035AA6"/>
<path d="M2452.42 70.5C2470.76 70.5 2486.92 74.1667 2500.92 81.5C2515.09 88.8333 2526.09 99.1667 2533.92 112.5C2541.76 125.667 2545.67 140.833 2545.67 158C2545.67 175.167 2541.67 190.417 2533.67 203.75C2525.84 217.083 2514.67 227.417 2500.17 234.75C2485.84 242.083 2469.34 245.75 2450.67 245.75H2376.92V70.5H2452.42ZM2453.67 208.75C2462.51 208.75 2470.34 206.667 2477.17 202.5C2484.01 198.333 2489.34 192.417 2493.17 184.75C2497.01 177.083 2498.92 168.333 2498.92 158.5C2498.92 148.5 2496.84 139.667 2492.67 132C2488.67 124.333 2483.09 118.417 2475.92 114.25C2468.76 109.917 2460.59 107.75 2451.42 107.75H2422.67V208.75H2453.67Z" fill="#035AA6"/>
<path d="M2312.31 245.75L2300.31 214.75H2224.56L2212.31 245.75H2165.31L2240.56 70.5H2287.56L2361.06 245.75H2312.31ZM2238.31 179.75H2286.81L2262.81 117.25L2238.31 179.75Z" fill="#035AA6"/>
<path d="M2072.3 70.5C2090.63 70.5 2106.8 74.1667 2120.8 81.5C2134.96 88.8333 2145.96 99.1667 2153.8 112.5C2161.63 125.667 2165.55 140.833 2165.55 158C2165.55 175.167 2161.55 190.417 2153.55 203.75C2145.71 217.083 2134.55 227.417 2120.05 234.75C2105.71 242.083 2089.21 245.75 2070.55 245.75H1996.8V70.5H2072.3ZM2073.55 208.75C2082.38 208.75 2090.21 206.667 2097.05 202.5C2103.88 198.333 2109.21 192.417 2113.05 184.75C2116.88 177.083 2118.8 168.333 2118.8 158.5C2118.8 148.5 2116.71 139.667 2112.55 132C2108.55 124.333 2102.96 118.417 2095.8 114.25C2088.63 109.917 2080.46 107.75 2071.3 107.75H2042.55V208.75H2073.55Z" fill="#035AA6"/>
<path d="M1916.96 70.5H1962.71V245.75H1916.96V70.5Z" fill="#035AA6"/>
<path d="M1876.09 123.25C1866.75 117.75 1856.75 113.25 1846.09 109.75C1835.59 106.25 1826.75 104.5 1819.59 104.5C1813.92 104.5 1809.42 105.583 1806.09 107.75C1802.92 109.75 1801.34 112.75 1801.34 116.75C1801.34 120.583 1802.75 123.833 1805.59 126.5C1808.42 129 1811.92 131.083 1816.09 132.75C1820.25 134.25 1826.42 136.25 1834.59 138.75C1846.75 142.25 1856.75 145.75 1864.59 149.25C1872.59 152.75 1879.42 158.167 1885.09 165.5C1890.75 172.667 1893.59 182.083 1893.59 193.75C1893.59 205.417 1890.5 215.417 1884.34 223.75C1878.17 231.917 1869.67 238.083 1858.84 242.25C1848.17 246.417 1836.25 248.5 1823.09 248.5C1808.59 248.5 1794.09 246 1779.59 241C1765.25 235.833 1752.84 228.833 1742.34 220L1760.09 184.25C1768.92 192.083 1779.34 198.5 1791.34 203.5C1803.5 208.5 1814.25 211 1823.59 211C1830.42 211 1835.75 209.75 1839.59 207.25C1843.59 204.75 1845.59 201.083 1845.59 196.25C1845.59 192.25 1844.09 188.917 1841.09 186.25C1838.25 183.583 1834.59 181.5 1830.09 180C1825.75 178.333 1819.59 176.417 1811.59 174.25C1799.59 170.917 1789.67 167.583 1781.84 164.25C1774 160.75 1767.25 155.583 1761.59 148.75C1756.09 141.75 1753.34 132.5 1753.34 121C1753.34 110.167 1756.17 100.667 1761.84 92.5C1767.67 84.3333 1775.84 78.0833 1786.34 73.75C1797 69.25 1809.34 67 1823.34 67C1836 67 1848.5 68.8333 1860.84 72.5C1873.17 76 1884 80.75 1893.34 86.75L1876.09 123.25Z" fill="#035AA6"/>
<path d="M1679.68 245.75L1654.18 197.25H1653.18H1620.18V245.75H1574.43V70.5H1653.18C1676.35 70.5 1694.26 75.9167 1706.93 86.75C1719.76 97.4167 1726.18 112.5 1726.18 132C1726.18 145.167 1723.51 156.583 1718.18 166.25C1712.85 175.75 1705.1 183.167 1694.93 188.5L1731.43 245.75H1679.68ZM1620.18 160.75H1653.43C1662.76 160.75 1669.93 158.417 1674.93 153.75C1680.1 149.083 1682.68 142.333 1682.68 133.5C1682.68 125 1680.1 118.5 1674.93 114C1669.93 109.333 1662.76 107 1653.43 107H1620.18V160.75Z" fill="#035AA6"/>
<path d="M1405.73 70.5H1543.98V107H1451.48V139.75H1534.98V176L1451.48 176.25V209.25H1546.48V245.75H1405.73V70.5Z" fill="#035AA6"/>
<path d="M1205.12 70.5H1254.38L1298.12 197.25L1342.12 70.5H1389.12L1320.62 245.75H1273.12L1205.12 70.5Z" fill="#035AA6"/>
<path d="M1142.79 70.5H1188.54V245.75H1142.79V70.5Z" fill="#035AA6"/>
<path d="M1066.01 70.5H1108.51V245.75H1068.51L989.008 141V245.75H946.258V70.5H986.508L1066.26 176L1066.01 70.5Z" fill="#035AA6"/>
<path d="M801.75 173.5C801.75 184.5 805 193.333 811.5 200C818 206.667 826.25 210 836.25 210C846.083 210 854 206.75 860 200.25C866.167 193.583 869.25 184.667 869.25 173.5V70.5H915V173.5C915 188.667 911.75 202 905.25 213.5C898.917 224.833 889.75 233.583 877.75 239.75C865.917 245.917 852 249 836 249C820 249 805.917 245.917 793.75 239.75C781.75 233.583 772.417 224.833 765.75 213.5C759.25 202 756 188.667 756 173.5V70.5H801.75V173.5Z" fill="#035AA6"/>
</svg>
