<svg width="20" height="20" viewBox="0 0 20 20" fill="none" xmlns="http://www.w3.org/2000/svg">
<path d="M20 10C20 11.3833 19.7375 12.6833 19.2125 13.9C18.6875 15.1167 17.975 16.175 17.075 17.075C16.175 17.975 15.1167 18.6875 13.9 19.2125C12.6833 19.7375 11.3833 20 10 20C8.13333 20 6.4125 19.5292 4.8375 18.5875C3.2625 17.6458 2.04167 16.3667 1.175 14.75C1.04167 14.5 1.025 14.2375 1.125 13.9625C1.225 13.6875 1.40833 13.4917 1.675 13.375C1.925 13.275 2.17917 13.275 2.4375 13.375C2.69583 13.475 2.89167 13.6417 3.025 13.875C3.725 15.125 4.69583 16.125 5.9375 16.875C7.17917 17.625 8.53333 18 10 18C12.2333 18 14.125 17.225 15.675 15.675C17.225 14.125 18 12.2333 18 10C18 7.76667 17.225 5.875 15.675 4.325C14.125 2.775 12.2333 2 10 2C8.53333 2 7.17917 2.375 5.9375 3.125C4.69583 3.875 3.725 4.875 3.025 6.125C2.89167 6.35833 2.69583 6.525 2.4375 6.625C2.17917 6.725 1.925 6.725 1.675 6.625C1.40833 6.525 1.21667 6.34583 1.1 6.0875C0.983333 5.82917 0.991666 5.58333 1.125 5.35C1.975 3.71667 3.19167 2.41667 4.775 1.45C6.35833 0.483331 8.1 -3.54062e-07 10 -4.37114e-07C11.3833 -4.97581e-07 12.6833 0.2625 13.9 0.7875C15.1167 1.3125 16.175 2.025 17.075 2.925C17.975 3.825 18.6875 4.88333 19.2125 6.1C19.7375 7.31666 20 8.61667 20 10ZM10.175 11L1 11C0.716666 11 0.479166 10.9042 0.2875 10.7125C0.0958329 10.5208 -4.24729e-07 10.2833 -4.37114e-07 10C-4.49499e-07 9.71667 0.0958329 9.47917 0.2875 9.2875C0.479166 9.09583 0.716666 9 1 9L10.175 9L8.3 7.1C8.11667 6.91667 8.02083 6.6875 8.0125 6.4125C8.00417 6.1375 8.1 5.9 8.3 5.7C8.48333 5.51667 8.71667 5.425 9 5.425C9.28333 5.425 9.51667 5.51667 9.7 5.7L13.3 9.3C13.5 9.5 13.6 9.73333 13.6 10C13.6 10.2667 13.5 10.5 13.3 10.7L9.7 14.3C9.51667 14.4833 9.2875 14.5792 9.0125 14.5875C8.7375 14.5958 8.5 14.5 8.3 14.3C8.11667 14.1167 8.025 13.8833 8.025 13.6C8.025 13.3167 8.11667 13.0833 8.3 12.9L10.175 11Z" fill="white"/>
</svg>
