<svg width="20" height="20" viewBox="0 0 20 20" fill="none" xmlns="http://www.w3.org/2000/svg">
<path d="M5.8 20H2C1.45 20 0.979167 19.8042 0.5875 19.4125C0.195833 19.0208 0 18.55 0 18V14.2C0.8 14.2 1.5 13.9458 2.1 13.4375C2.7 12.9292 3 12.2833 3 11.5C3 10.7167 2.7 10.0708 2.1 9.5625C1.5 9.05417 0.8 8.8 0 8.8V5C0 4.45 0.195833 3.97917 0.5875 3.5875C0.979167 3.19583 1.45 3 2 3H6C6 2.3 6.24167 1.70833 6.725 1.225C7.20833 0.741667 7.8 0.5 8.5 0.5C9.2 0.5 9.79167 0.741667 10.275 1.225C10.7583 1.70833 11 2.3 11 3H15C15.55 3 16.0208 3.19583 16.4125 3.5875C16.8042 3.97917 17 4.45 17 5V9C17.7 9 18.2917 9.24167 18.775 9.725C19.2583 10.2083 19.5 10.8 19.5 11.5C19.5 12.2 19.2583 12.7917 18.775 13.275C18.2917 13.7583 17.7 14 17 14V18C17 18.55 16.8042 19.0208 16.4125 19.4125C16.0208 19.8042 15.55 20 15 20H11.2C11.2 19.1667 10.9375 18.4583 10.4125 17.875C9.8875 17.2917 9.25 17 8.5 17C7.75 17 7.1125 17.2917 6.5875 17.875C6.0625 18.4583 5.8 19.1667 5.8 20Z" fill="#035AA6"/>
</svg>
