<svg width="22" height="22" viewBox="0 0 22 22" fill="none" xmlns="http://www.w3.org/2000/svg">
<g clip-path="url(#clip0_266_8)">
<path d="M21.7376 11.206C21.7376 10.3047 21.6645 9.64693 21.5062 8.96484H11.2139V13.033H17.2552C17.1335 14.044 16.4757 15.5665 15.0141 16.5896L14.9936 16.7258L18.2478 19.2468L18.4733 19.2693C20.5439 17.357 21.7376 14.5434 21.7376 11.206Z" fill="#4285F4"/>
<path d="M11.2138 21.9245C14.1736 21.9245 16.6583 20.95 18.4732 19.2692L15.014 16.5895C14.0884 17.2351 12.846 17.6857 11.2138 17.6857C8.31496 17.6857 5.85457 15.7735 4.97751 13.1304L4.84895 13.1413L1.46515 15.76L1.4209 15.8831C3.22355 19.464 6.92636 21.9245 11.2138 21.9245Z" fill="#34A853"/>
<path d="M4.97784 13.1301C4.74642 12.448 4.61249 11.7171 4.61249 10.962C4.61249 10.2068 4.74642 9.47597 4.96566 8.79389L4.95953 8.64862L1.53333 5.98779L1.42123 6.04111C0.678266 7.52712 0.251953 9.19585 0.251953 10.962C0.251953 12.7281 0.678266 14.3967 1.42123 15.8828L4.97784 13.1301Z" fill="#FBBC05"/>
<path d="M11.2138 4.23869C13.2723 4.23869 14.6608 5.12785 15.4525 5.87089L18.5463 2.85018C16.6462 1.08405 14.1736 0 11.2138 0C6.92636 0 3.22355 2.46039 1.4209 6.04135L4.96533 8.79412C5.85457 6.15102 8.31496 4.23869 11.2138 4.23869Z" fill="#EB4335"/>
</g>
<defs>
<clipPath id="clip0_266_8">
<rect width="22" height="22" fill="white"/>
</clipPath>
</defs>
</svg>
