<svg width="20" height="16" viewBox="0 0 20 16" fill="none" xmlns="http://www.w3.org/2000/svg">
<path d="M7 16C6.45 16 5.97917 15.8042 5.5875 15.4125C5.19583 15.0208 5 14.55 5 14V11H8V8.75C7.41667 8.71667 6.8625 8.5875 6.3375 8.3625C5.8125 8.1375 5.33333 7.8 4.9 7.35V6.25H3.75L0.5 3C1.1 2.23333 1.84167 1.69167 2.725 1.375C3.60833 1.05833 4.5 0.9 5.4 0.9C5.85 0.9 6.2875 0.933333 6.7125 1C7.1375 1.06667 7.56667 1.19167 8 1.375V0H20V13C20 13.8333 19.7083 14.5417 19.125 15.125C18.5417 15.7083 17.8333 16 17 16H7ZM10 11H16V13C16 13.2833 16.0958 13.5208 16.2875 13.7125C16.4792 13.9042 16.7167 14 17 14C17.2833 14 17.5208 13.9042 17.7125 13.7125C17.9042 13.5208 18 13.2833 18 13V2H10V2.6L16 8.6V10H14.6L11.75 7.15L11.55 7.35C11.3167 7.58333 11.0708 7.79167 10.8125 7.975C10.5542 8.15833 10.2833 8.3 10 8.4V11ZM4.6 4.25H6.9V6.4C7.1 6.53333 7.30833 6.625 7.525 6.675C7.74167 6.725 7.96667 6.75 8.2 6.75C8.58333 6.75 8.92917 6.69167 9.2375 6.575C9.54583 6.45833 9.85 6.25 10.15 5.95L10.35 5.75L8.95 4.35C8.46667 3.86667 7.925 3.50417 7.325 3.2625C6.725 3.02083 6.08333 2.9 5.4 2.9C5.06667 2.9 4.75 2.925 4.45 2.975C4.15 3.025 3.85 3.1 3.55 3.2L4.6 4.25Z" fill="#035AA6"/>
</svg>
