<svg width="36" height="36" viewBox="0 0 36 36" fill="none" xmlns="http://www.w3.org/2000/svg">
<rect x="0.5" y="0.5" width="35" height="35" rx="4.5" fill="white" stroke="black"/>
<path d="M18 22C16.85 22 15.775 22.175 14.775 22.525C13.775 22.875 12.85 23.3667 12 24V26H24V24C23.15 23.3667 22.225 22.875 21.225 22.525C20.225 22.175 19.15 22 18 22ZM12 28C11.45 28 10.9792 27.8042 10.5875 27.4125C10.1958 27.0208 10 26.55 10 26V10C10 9.45 10.1958 8.97917 10.5875 8.5875C10.9792 8.19583 11.45 8 12 8H24C24.55 8 25.0208 8.19583 25.4125 8.5875C25.8042 8.97917 26 9.45 26 10V26C26 26.55 25.8042 27.0208 25.4125 27.4125C25.0208 27.8042 24.55 28 24 28H12ZM18 20C18.9667 20 19.7917 19.6583 20.475 18.975C21.1583 18.2917 21.5 17.4667 21.5 16.5C21.5 15.5333 21.1583 14.7083 20.475 14.025C19.7917 13.3417 18.9667 13 18 13C17.0333 13 16.2083 13.3417 15.525 14.025C14.8417 14.7083 14.5 15.5333 14.5 16.5C14.5 17.4667 14.8417 18.2917 15.525 18.975C16.2083 19.6583 17.0333 20 18 20Z" fill="#1C1B1F"/>
</svg>
