<svg width="18" height="22" viewBox="0 0 18 22" fill="none" xmlns="http://www.w3.org/2000/svg">
<path d="M9 21.5C7.8 20.3667 6.425 19.5 4.875 18.9C3.325 18.3 1.7 18 0 18V7C1.68333 7 3.3 7.30417 4.85 7.9125C6.4 8.52083 7.78333 9.4 9 10.55C10.2167 9.4 11.6 8.52083 13.15 7.9125C14.7 7.30417 16.3167 7 18 7V18C16.2833 18 14.6542 18.3 13.1125 18.9C11.5708 19.5 10.2 20.3667 9 21.5ZM9 8C7.9 8 6.95833 7.60833 6.175 6.825C5.39167 6.04167 5 5.1 5 4C5 2.9 5.39167 1.95833 6.175 1.175C6.95833 0.391667 7.9 0 9 0C10.1 0 11.0417 0.391667 11.825 1.175C12.6083 1.95833 13 2.9 13 4C13 5.1 12.6083 6.04167 11.825 6.825C11.0417 7.60833 10.1 8 9 8Z" fill="#035AA6"/>
</svg>
