<svg width="183" height="143" viewBox="0 0 183 143" fill="none" xmlns="http://www.w3.org/2000/svg">
<path fill-rule="evenodd" clip-rule="evenodd" d="M98.3536 24.8338V0H84.1936L98.3536 24.8338ZM71.6773 93.7317C85.2051 93.7317 96.4571 83.5434 98.2271 70.4261L83.1822 44.3188V63.0396C83.1822 69.4073 77.9987 74.6287 71.6773 74.6287C65.3559 74.6287 60.1723 69.4073 60.1723 63.0396V0H48.541C46.5181 0 45.001 1.65559 45.001 3.56588V66.7329C44.8746 81.6331 57.0116 93.7317 71.6773 93.7317Z" fill="url(#paint0_linear_32_119)"/>
<path fill-rule="evenodd" clip-rule="evenodd" d="M136.661 7.64126V3.69332C136.661 1.65567 135.018 0.127441 133.121 0.127441H121.49V7.76861H136.661V7.64126ZM109.858 93.7317C124.524 93.7317 136.661 81.6332 136.661 66.7329V11.3345H121.49V62.6577C121.49 69.0253 116.306 74.2468 109.985 74.2468C107.077 74.2468 104.422 73.1006 102.399 71.3176L93.1699 87.4914C97.7213 91.5667 103.537 93.7317 109.858 93.7317Z" fill="url(#paint1_linear_32_119)"/>
<path fill-rule="evenodd" clip-rule="evenodd" d="M71.6774 70.8082C75.9759 70.8082 79.3895 67.3697 79.3895 63.0397V29.8006L95.193 57.6909C97.0894 61.0021 98.9858 63.8038 100.756 66.2235C102.905 69.0253 106.192 70.9356 109.859 70.9356C114.157 70.9356 117.571 67.4971 117.571 63.1671V0.127441H102.147L102.399 39.4794L79.5159 0.254794L63.8389 0.127441V63.1671C63.9653 67.2424 67.3788 70.8082 71.6774 70.8082Z" fill="url(#paint2_linear_32_119)"/>
<path d="M32.4663 122.828C30.7106 122.828 29.3301 122.34 28.339 121.356C27.3478 120.372 26.8523 118.977 26.8523 117.158V110.22H29.7194V117.051C29.7194 118.234 29.9601 119.083 30.4486 119.6C30.9371 120.117 31.6097 120.379 32.4875 120.379C33.3654 120.379 34.0379 120.117 34.5264 119.6C35.0078 119.083 35.2485 118.234 35.2485 117.051V110.227H38.0802V117.165C38.0802 118.984 37.5847 120.379 36.5936 121.363C35.6025 122.347 34.229 122.828 32.4663 122.828ZM40.912 122.616V110.227H43.2836L50.5967 119.147H49.4427V110.227H52.2745V122.616H49.9171L42.5898 113.696H43.7438V122.616H40.912ZM55.2054 122.616V110.227H58.0726V122.616H55.2054ZM64.6777 122.616L59.3327 110.227H62.4335L67.1059 121.2H65.2794L70.0226 110.227H72.8756L67.5094 122.616H64.6777ZM76.5428 115.218H82.5107V117.448H76.5428V115.218ZM76.7552 120.315H83.5019V122.616H73.9092V110.227H83.2682V112.528H76.7552V120.315ZM85.7814 122.616V110.227H91.1477C92.2591 110.227 93.2148 110.411 94.0148 110.779C94.8148 111.133 95.4378 111.65 95.8767 112.322C96.3156 112.995 96.5351 113.795 96.5351 114.729C96.5351 115.65 96.3156 116.45 95.8767 117.122C95.4378 117.781 94.8219 118.29 94.0148 118.644C93.2148 118.998 92.2591 119.175 91.1477 119.175H87.3743L88.6486 117.915V122.623H85.7814V122.616ZM93.6538 122.616L90.553 118.12H93.6184L96.7546 122.616H93.6538ZM88.6486 118.227L87.3743 116.881H90.9848C91.8698 116.881 92.5281 116.69 92.9671 116.315C93.406 115.926 93.6255 115.395 93.6255 114.722C93.6255 114.036 93.406 113.505 92.9671 113.129C92.5281 112.754 91.8698 112.563 90.9848 112.563H87.3743L88.6486 111.197V118.227ZM102.864 122.828C101.873 122.828 100.924 122.701 100.011 122.439C99.1049 122.17 98.3687 121.816 97.8165 121.391L98.7934 119.232C99.3244 119.607 99.9474 119.926 100.669 120.173C101.399 120.407 102.142 120.527 102.885 120.527C103.452 120.527 103.905 120.471 104.252 120.365C104.606 120.244 104.868 120.088 105.03 119.883C105.193 119.685 105.278 119.451 105.278 119.189C105.278 118.857 105.151 118.602 104.889 118.411C104.627 118.212 104.287 118.05 103.862 117.929C103.438 117.802 102.963 117.681 102.446 117.575C101.937 117.455 101.427 117.313 100.903 117.15C100.393 116.988 99.9261 116.775 99.5014 116.513C99.0766 116.251 98.7297 115.912 98.4536 115.487C98.1917 115.062 98.0642 114.517 98.0642 113.859C98.0642 113.151 98.2554 112.506 98.6306 111.926C99.02 111.338 99.6005 110.871 100.365 110.524C101.144 110.17 102.121 109.993 103.289 109.993C104.068 109.993 104.832 110.085 105.59 110.276C106.347 110.453 107.013 110.722 107.593 111.09L106.708 113.271C106.128 112.938 105.554 112.698 104.974 112.542C104.393 112.379 103.827 112.294 103.275 112.294C102.723 112.294 102.262 112.358 101.908 112.492C101.554 112.627 101.3 112.797 101.144 113.009C100.988 113.207 100.91 113.448 100.91 113.717C100.91 114.036 101.038 114.297 101.3 114.496C101.561 114.687 101.901 114.836 102.326 114.956C102.751 115.076 103.218 115.189 103.728 115.31C104.245 115.43 104.761 115.565 105.271 115.72C105.788 115.876 106.262 116.081 106.687 116.343C107.112 116.605 107.452 116.945 107.714 117.37C107.983 117.795 108.124 118.333 108.124 118.984C108.124 119.678 107.926 120.315 107.537 120.895C107.147 121.476 106.56 121.943 105.781 122.297C105.016 122.651 104.046 122.828 102.864 122.828ZM110.085 122.616V110.227H112.952V122.616H110.085ZM115.89 122.616V110.227H121.518C122.863 110.227 124.053 110.489 125.079 111.006C126.106 111.515 126.906 112.23 127.486 113.151C128.067 114.071 128.357 115.161 128.357 116.428C128.357 117.681 128.067 118.772 127.486 119.706C126.906 120.626 126.106 121.349 125.079 121.865C124.053 122.375 122.863 122.63 121.518 122.63H115.89V122.616ZM118.757 120.265H121.377C122.205 120.265 122.92 120.11 123.522 119.805C124.138 119.487 124.605 119.041 124.938 118.46C125.278 117.88 125.455 117.2 125.455 116.421C125.455 115.628 125.285 114.949 124.938 114.382C124.605 113.802 124.138 113.363 123.522 113.051C122.92 112.733 122.205 112.57 121.377 112.57H118.757V120.265ZM128.711 122.616L134.233 110.227H137.065L142.608 122.616H139.599L135.068 111.678H136.201L131.649 122.616H128.711ZM131.472 119.961L132.237 117.781H138.608L139.387 119.961H131.472ZM143.889 122.616V110.227H149.518C150.863 110.227 152.052 110.489 153.079 111.006C154.105 111.515 154.905 112.23 155.486 113.151C156.066 114.071 156.356 115.161 156.356 116.428C156.356 117.681 156.066 118.772 155.486 119.706C154.905 120.626 154.105 121.349 153.079 121.865C152.052 122.375 150.863 122.63 149.518 122.63H143.889V122.616ZM146.757 120.265H149.376C150.204 120.265 150.919 120.11 151.521 119.805C152.137 119.487 152.604 119.041 152.937 118.46C153.277 117.88 153.454 117.2 153.454 116.421C153.454 115.628 153.284 114.949 152.937 114.382C152.604 113.802 152.137 113.363 151.521 113.051C150.919 112.733 150.204 112.57 149.376 112.57H146.757V120.265ZM0 142.438V130.049H2.37161L9.67758 138.969H8.52363V130.049H11.3554V142.438H8.99795L1.6849 133.518H2.83885V142.438H0ZM12.6651 142.438L18.1871 130.049H21.0188L26.562 142.438H23.5533L19.0224 131.5H20.1551L15.6031 142.438H12.6651ZM15.4261 139.783L16.1907 137.603H22.5621L23.3409 139.783H15.4261ZM33.599 142.651C32.6432 142.651 31.7512 142.495 30.9229 142.19C30.1088 141.872 29.4009 141.426 28.7991 140.845C28.1974 140.265 27.723 139.585 27.3832 138.806C27.0505 138.028 26.8877 137.171 26.8877 136.237C26.8877 135.302 27.0505 134.446 27.3832 133.667C27.723 132.888 28.1974 132.208 28.7991 131.628C29.415 131.047 30.1301 130.608 30.9442 130.297C31.7583 129.978 32.6503 129.816 33.6202 129.816C34.6963 129.816 35.6591 130.007 36.5228 130.382C37.3935 130.75 38.1298 131.288 38.7174 132.01L36.8767 133.709C36.452 133.228 35.9777 132.867 35.4609 132.626C34.9441 132.378 34.3777 132.251 33.7618 132.251C33.1813 132.251 32.6503 132.343 32.1689 132.534C31.6875 132.725 31.2628 132.994 30.9088 133.348C30.5548 133.702 30.2787 134.12 30.0734 134.608C29.8823 135.09 29.7902 135.628 29.7902 136.222C29.7902 136.817 29.8823 137.348 30.0734 137.837C30.2716 138.318 30.5548 138.743 30.9088 139.097C31.2628 139.451 31.6804 139.72 32.1689 139.911C32.6503 140.102 33.1813 140.194 33.7618 140.194C34.3777 140.194 34.9441 140.074 35.4609 139.84C35.9777 139.592 36.452 139.217 36.8767 138.721L38.7174 140.421C38.1298 141.143 37.3935 141.688 36.5228 142.07C35.6591 142.459 34.6892 142.651 33.599 142.651ZM40.6501 142.438V130.049H43.5173V142.438H40.6501ZM52.4798 142.651C51.5028 142.651 50.5896 142.488 49.7542 142.169C48.9259 141.851 48.2109 141.405 47.595 140.824C46.9933 140.244 46.5189 139.564 46.1791 138.785C45.8464 138.006 45.6836 137.157 45.6836 136.237C45.6836 135.316 45.8464 134.467 46.1791 133.688C46.5189 132.909 47.0003 132.23 47.6162 131.649C48.2322 131.069 48.9472 130.623 49.7755 130.304C50.6038 129.985 51.4958 129.823 52.4657 129.823C53.4426 129.823 54.3417 129.985 55.1558 130.304C55.9841 130.623 56.6992 131.069 57.3009 131.649C57.9168 132.23 58.3911 132.909 58.738 133.688C59.0778 134.453 59.2548 135.302 59.2548 136.237C59.2548 137.157 59.0849 138.014 58.738 138.806C58.3982 139.585 57.9168 140.265 57.3009 140.845C56.6992 141.412 55.9841 141.858 55.1558 142.176C54.3346 142.495 53.4426 142.651 52.4798 142.651ZM52.4586 140.208C53.0108 140.208 53.5205 140.116 53.9806 139.925C54.455 139.734 54.8656 139.465 55.2195 139.111C55.5735 138.757 55.8425 138.339 56.0337 137.851C56.2319 137.369 56.3381 136.831 56.3381 136.237C56.3381 135.642 56.239 135.111 56.0337 134.623C55.8425 134.141 55.5735 133.716 55.2195 133.362C54.8797 133.008 54.4691 132.739 53.9948 132.548C53.5205 132.357 53.0108 132.265 52.4515 132.265C51.8993 132.265 51.3825 132.357 50.9082 132.548C50.448 132.739 50.0374 133.008 49.6834 133.362C49.3295 133.716 49.0534 134.134 48.8481 134.623C48.6569 135.104 48.5649 135.642 48.5649 136.237C48.5649 136.817 48.6569 137.355 48.8481 137.851C49.0463 138.332 49.3224 138.757 49.6622 139.111C50.0162 139.465 50.4268 139.734 50.9011 139.925C51.3896 140.116 51.9064 140.208 52.4586 140.208ZM61.3928 142.438V130.049H63.7644L71.0704 138.969H69.9164V130.049H72.7482V142.438H70.3908L63.0636 133.518H64.2246V142.438H61.3928ZM74.0579 142.438L79.5799 130.049H82.4116L87.9548 142.438H84.9461L80.4152 131.5H81.5479L76.9959 142.438H74.0579ZM76.8189 139.783L77.5835 137.603H83.9549L84.7337 139.783H76.8189ZM89.2362 142.438V130.049H92.1034V140.102H98.3191V142.438H89.2362ZM104.931 142.438V130.049H110.559C111.905 130.049 113.094 130.311 114.12 130.828C115.147 131.338 115.947 132.053 116.527 132.973C117.108 133.893 117.398 134.984 117.398 136.251C117.398 137.504 117.108 138.594 116.527 139.529C115.947 140.449 115.147 141.171 114.12 141.688C113.094 142.197 111.905 142.452 110.559 142.452H104.931V142.438ZM107.798 140.088H110.418C111.246 140.088 111.961 139.932 112.563 139.628C113.179 139.309 113.646 138.863 113.979 138.283C114.319 137.702 114.496 137.022 114.496 136.244C114.496 135.451 114.326 134.771 113.979 134.205C113.646 133.624 113.179 133.185 112.563 132.874C111.961 132.555 111.246 132.392 110.418 132.392H107.798V140.088ZM122.191 135.04H128.159V137.27H122.191V135.04ZM122.403 140.137H129.15V142.438H119.557V130.049H128.923V132.35H122.41V140.137H122.403ZM138.721 142.651C137.886 142.651 137.107 142.495 136.399 142.19C135.706 141.872 135.132 141.426 134.679 140.845L136.272 138.934C136.612 139.38 136.973 139.727 137.355 139.96C137.73 140.187 138.141 140.3 138.58 140.3C139.748 140.3 140.336 139.614 140.336 138.247V132.35H135.982V130.049H143.189V138.084C143.189 139.621 142.813 140.76 142.056 141.518C141.291 142.275 140.187 142.651 138.721 142.651ZM144.123 142.438L149.645 130.049H152.477L158.02 142.438H155.011L150.48 131.5H151.613L147.061 142.438H144.123ZM146.884 139.783L147.649 137.603H154.02L154.799 139.783H146.884ZM161.942 135.04H167.91V137.27H161.942V135.04ZM162.154 140.137H168.901V142.438H159.308V130.049H168.674V132.35H162.161V140.137H162.154ZM162.388 129.044L164.781 126.495H167.754L164.547 129.044H162.388ZM171.181 142.438V130.049H173.552L180.865 138.969H179.711V130.049H182.543V142.438H180.186L172.858 133.518H174.012V142.438H171.181Z" fill="#035AA6"/>
<defs>
<linearGradient id="paint0_linear_32_119" x1="71.6768" y1="0" x2="71.6768" y2="93.7317" gradientUnits="userSpaceOnUse">
<stop stop-color="#035AA6"/>
<stop offset="1" stop-color="#00327D"/>
</linearGradient>
<linearGradient id="paint1_linear_32_119" x1="114.916" y1="0.127441" x2="114.916" y2="93.7317" gradientUnits="userSpaceOnUse">
<stop stop-color="#035AA6"/>
<stop offset="1" stop-color="#00327D"/>
</linearGradient>
<linearGradient id="paint2_linear_32_119" x1="90.7048" y1="-5.5" x2="90.7048" y2="129.5" gradientUnits="userSpaceOnUse">
<stop stop-color="#1894D0"/>
<stop offset="1" stop-color="#00357A"/>
</linearGradient>
</defs>
</svg>
