<svg width="239" height="104" viewBox="0 0 239 104" fill="none" xmlns="http://www.w3.org/2000/svg">
<rect width="201" height="104" rx="23" fill="#035AA6"/>
<path d="M11 35C11 26.7157 17.7157 20 26 20H165V84H26C17.7157 84 11 77.2843 11 69V35Z" fill="white"/>
<rect x="155" y="10" width="84" height="84" rx="16" fill="white"/>
<path d="M45.4962 60.8911C45.4962 60.2726 45.4053 59.7177 45.2233 59.2265C45.0414 58.7171 44.7048 58.2441 44.2136 57.8074C43.7224 57.3708 43.0129 56.9342 42.085 56.4975C41.1754 56.0427 39.9746 55.5697 38.4828 55.0785C36.7363 54.4963 35.0535 53.8414 33.4343 53.1136C31.8151 52.3677 30.3688 51.5036 29.0953 50.5211C27.8217 49.5205 26.812 48.3562 26.0661 47.0281C25.3202 45.6818 24.9473 44.1172 24.9473 42.3343C24.9473 40.6242 25.3293 39.0869 26.0934 37.7224C26.8575 36.3397 27.9218 35.1663 29.2863 34.2021C30.6689 33.2196 32.2881 32.4737 34.1438 31.9643C35.9995 31.4367 38.028 31.1729 40.2294 31.1729C43.1402 31.1729 45.7054 31.6823 47.925 32.7011C50.1627 33.7017 51.9092 35.1299 53.1645 36.9856C54.4381 38.8231 55.0748 40.9971 55.0748 43.5078H45.5508C45.5508 42.5071 45.3416 41.6248 44.9231 40.8607C44.5229 40.0966 43.9134 39.4962 43.0947 39.0596C42.2761 38.6229 41.2482 38.4046 40.011 38.4046C38.8103 38.4046 37.8006 38.5866 36.9819 38.9504C36.1632 39.3143 35.5447 39.8055 35.1262 40.424C34.7078 41.0244 34.4986 41.6885 34.4986 42.4162C34.4986 43.0165 34.6623 43.5623 34.9898 44.0535C35.3354 44.5266 35.8176 44.9723 36.4361 45.3907C37.0729 45.8092 37.837 46.2094 38.7284 46.5915C39.6381 46.9735 40.6569 47.3465 41.7849 47.7103C43.8952 48.3835 45.7691 49.1385 47.4065 49.9754C49.062 50.794 50.4538 51.731 51.5818 52.7862C52.7279 53.8232 53.5921 55.0057 54.1743 56.3338C54.7746 57.6619 55.0748 59.1628 55.0748 60.8366C55.0748 62.6195 54.7291 64.2023 54.0378 65.5849C53.3465 66.9676 52.355 68.141 51.0633 69.1053C49.7716 70.0513 48.2252 70.7699 46.4241 71.2611C44.623 71.7523 42.6126 71.9979 40.3931 71.9979C38.3555 71.9979 36.3452 71.7432 34.3621 71.2338C32.3973 70.7062 30.6144 69.9057 29.0134 68.8324C27.4124 67.7408 26.1298 66.349 25.1656 64.6571C24.2195 62.9469 23.7465 60.9184 23.7465 58.5715H33.3524C33.3524 59.7359 33.5071 60.7183 33.8163 61.5188C34.1256 62.3193 34.5804 62.9651 35.1808 63.4563C35.7812 63.9294 36.518 64.275 37.3912 64.4933C38.2645 64.6935 39.2651 64.7935 40.3931 64.7935C41.612 64.7935 42.5944 64.6207 43.3403 64.275C44.0863 63.9112 44.632 63.4381 44.9777 62.856C45.3234 62.2556 45.4962 61.6007 45.4962 60.8911ZM69.0754 31.7187V71.4521H59.5241V31.7187H69.0754ZM107.2 50.221V66.54C106.527 67.286 105.49 68.0864 104.089 68.9415C102.706 69.7784 100.96 70.497 98.8493 71.0974C96.7389 71.6978 94.2555 71.9979 91.3993 71.9979C88.7613 71.9979 86.3689 71.5795 84.2221 70.7426C82.0754 69.8876 80.2288 68.6413 78.6824 67.004C77.1542 65.3484 75.9716 63.329 75.1347 60.9457C74.3161 58.5442 73.9067 55.7971 73.9067 52.7043V50.4939C73.9067 47.401 74.3252 44.6539 75.162 42.2524C75.9989 39.851 77.1724 37.8315 78.6824 36.1942C80.2106 34.5386 82.0026 33.2833 84.0584 32.4282C86.1324 31.5732 88.4065 31.1456 90.8808 31.1456C94.5375 31.1456 97.5121 31.7278 99.8044 32.8922C102.097 34.0383 103.834 35.6302 105.017 37.6678C106.199 39.6872 106.918 42.025 107.173 44.6812H97.976C97.7941 43.3713 97.4484 42.2615 96.939 41.3519C96.4478 40.424 95.7383 39.7236 94.8104 39.2506C93.8826 38.7594 92.6819 38.5138 91.2082 38.5138C90.0621 38.5138 89.016 38.7594 88.0699 39.2506C87.1421 39.7418 86.3507 40.4877 85.6958 41.4883C85.0408 42.4708 84.5314 43.7079 84.1675 45.1997C83.8219 46.6915 83.649 48.438 83.649 50.4393V52.7043C83.649 54.6873 83.8128 56.4248 84.1403 57.9166C84.4859 59.4084 84.9953 60.6546 85.6685 61.6552C86.3598 62.6377 87.2331 63.3836 88.2883 63.893C89.3616 64.3842 90.626 64.6298 92.0815 64.6298C93.1003 64.6298 93.9736 64.5479 94.7013 64.3842C95.429 64.2023 96.0294 63.9839 96.5024 63.7292C96.9936 63.4563 97.3665 63.2016 97.6212 62.9651V56.7977H90.9626V50.221H107.2ZM128.514 40.0693L118.826 71.4521H108.538L123.138 31.7187H129.66L128.514 40.0693ZM136.537 71.4521L126.822 40.0693L125.567 31.7187H132.171L146.852 71.4521H136.537ZM136.155 56.634V64.0294H115.77V56.634H136.155Z" fill="#035AA6"/>
<path d="M181.303 63.2969V25.0049H190.57L203.905 51.6763V25.0049H212.69V61.9648C212.691 63.2548 212.257 64.5074 211.457 65.5195C210.657 66.5317 209.539 67.2442 208.284 67.5416C207.029 67.8389 205.71 67.7037 204.541 67.1579C203.372 66.6121 202.422 65.6876 201.844 64.5342L190.091 41.017V63.2969C190.106 63.8829 190.003 64.466 189.789 65.0117C189.574 65.5574 189.253 66.0547 188.844 66.4743C188.434 66.894 187.945 67.2275 187.405 67.4552C186.865 67.6829 186.285 67.8002 185.698 67.8002C185.112 67.8002 184.532 67.6829 183.992 67.4552C183.451 67.2275 182.962 66.894 182.553 66.4743C182.143 66.0547 181.822 65.5574 181.608 65.0117C181.394 64.466 181.291 63.8829 181.305 63.2969H181.303Z" fill="#1894D0"/>
<path d="M200.712 67.878C199.749 71.0437 197.81 73.8237 195.171 75.8201C192.532 77.8164 189.329 78.9268 186.021 78.9922C183.953 79.0341 181.898 78.6594 179.978 77.8906C178.058 77.1217 176.312 75.9743 174.845 74.5167C173.316 73.0098 172.101 71.2149 171.27 69.2356C170.439 67.2564 170.009 65.1321 170.004 62.9855V27.5201C170.004 26.8531 170.269 26.2133 170.741 25.7416C171.212 25.2699 171.852 25.0049 172.519 25.0049H178.792V63.1263C178.792 66.8708 181.695 70.0629 185.436 70.201C186.365 70.2355 187.291 70.0827 188.159 69.7515C189.026 69.4204 189.819 68.9177 190.488 68.2736C191.158 67.6294 191.69 66.857 192.055 66.0024C192.419 65.1478 192.607 64.2286 192.608 63.2996V51.6763L199.596 65.6524L200.712 67.878Z" fill="#035AA6"/>
<path d="M201.391 41.0224L193.385 25.0049H201.391V41.0224Z" fill="#035AA6"/>
<path d="M224.001 27.5199V30.9608H215.213V25.0049H221.483C221.813 25.0045 222.141 25.0693 222.446 25.1956C222.752 25.3218 223.029 25.507 223.263 25.7406C223.497 25.9741 223.682 26.2515 223.809 26.5568C223.936 26.8621 224.001 27.1894 224.001 27.5199Z" fill="#035AA6"/>
<path d="M215.207 33.4795H223.996V63.2971C223.991 66.2081 223.178 69.0605 221.646 71.5359C220.114 74.0113 217.924 76.0121 215.321 77.3149C212.718 78.6178 209.803 79.1714 206.904 78.914C204.004 78.6566 201.233 77.5982 198.9 75.8571C200.721 73.9452 202.1 71.658 202.943 69.1561C204.197 69.8594 205.614 70.2223 207.052 70.2086C208.49 70.195 209.9 69.8053 211.141 69.0783C212.382 68.3513 213.411 67.3123 214.127 66.0644C214.842 64.8166 215.218 63.4033 215.218 61.965L215.207 33.4795Z" fill="#035AA6"/>
<rect x="154" y="30" width="2" height="44" rx="1" fill="#035AA6"/>
</svg>
