<svg width="170" height="133" viewBox="0 0 170 133" fill="none" xmlns="http://www.w3.org/2000/svg">
<path fill-rule="evenodd" clip-rule="evenodd" d="M92.2631 23.1668V0.113281H79.1183L92.2631 23.1668ZM67.4992 87.1255C80.0572 87.1255 90.5026 77.6676 92.1458 65.4907L78.1794 41.2549V58.6337C78.1794 64.5449 73.3674 69.392 67.4992 69.392C61.631 69.392 56.819 64.5449 56.819 58.6337V0.113281H46.0215C44.1437 0.113281 42.7353 1.65018 42.7353 3.42353V62.0622C42.6179 75.8943 53.8849 87.1255 67.4992 87.1255Z" fill="#035AA6"/>
<path fill-rule="evenodd" clip-rule="evenodd" d="M127.825 7.20563V3.54072C127.825 1.64915 126.299 0.230469 124.538 0.230469H113.741V7.32386H127.825V7.20563ZM102.943 87.1245C116.558 87.1245 127.825 75.8933 127.825 62.0612V10.6341H113.741V58.278C113.741 64.1892 108.929 69.0363 103.061 69.0363C100.361 69.0363 97.8966 67.9723 96.0188 66.3172L87.4512 81.3315C91.6763 85.1147 97.0751 87.1245 102.943 87.1245Z" fill="#035AA6"/>
<path fill-rule="evenodd" clip-rule="evenodd" d="M67.4993 65.8443C71.4897 65.8443 74.6585 62.6523 74.6585 58.6327V27.7765L89.3291 53.6673C91.0895 56.7411 92.85 59.342 94.4931 61.5883C96.4883 64.1892 99.5398 65.9625 102.943 65.9625C106.934 65.9625 110.103 62.7705 110.103 58.7509V0.230469H95.7841L96.0188 36.7614L74.7759 0.348692L60.2227 0.230469V58.7509C60.34 62.534 63.5089 65.8443 67.4993 65.8443Z" fill="#1894D0"/>
<path d="M30.6818 114.136C29.052 114.136 27.7704 113.682 26.8504 112.769C25.9303 111.855 25.4703 110.56 25.4703 108.871V102.431H28.1319V108.773C28.1319 109.87 28.3553 110.659 28.8088 111.139C29.2623 111.619 29.8866 111.862 30.7015 111.862C31.5164 111.862 32.1408 111.619 32.5942 111.139C33.0411 110.659 33.2646 109.87 33.2646 108.773V102.438H35.8933V108.878C35.8933 110.567 35.4333 111.862 34.5132 112.775C33.5932 113.689 32.3182 114.136 30.6818 114.136ZM38.5221 113.938V102.438H40.7237L47.5125 110.718H46.4412V102.438H49.07V113.938H46.8816L40.0796 105.658H41.1509V113.938H38.5221ZM51.7908 113.938V102.438H54.4524V113.938H51.7908ZM60.584 113.938L55.6222 102.438H58.5007L62.8382 112.624H61.1426L65.5458 102.438H68.1943L63.2128 113.938H60.584ZM71.5985 107.071H77.1387V109.141H71.5985V107.071ZM71.7957 111.803H78.0587V113.938H69.1538V102.438H77.8419V104.573H71.7957V111.803ZM80.1749 113.938V102.438H85.1564C86.1882 102.438 87.0754 102.608 87.818 102.95C88.5607 103.279 89.139 103.759 89.5465 104.383C89.9539 105.007 90.1577 105.75 90.1577 106.617C90.1577 107.472 89.9539 108.214 89.5465 108.839C89.139 109.45 88.5672 109.923 87.818 110.252C87.0754 110.58 86.1882 110.744 85.1564 110.744H81.6536L82.8365 109.575V113.945H80.1749V113.938ZM87.4829 113.938L84.6044 109.765H87.45L90.3614 113.938H87.4829ZM82.8365 109.864L81.6536 108.615H85.0053C85.8268 108.615 86.4379 108.438 86.8454 108.089C87.2529 107.728 87.4566 107.235 87.4566 106.611C87.4566 105.973 87.2529 105.48 86.8454 105.132C86.4379 104.784 85.8268 104.606 85.0053 104.606H81.6536L82.8365 103.338V109.864ZM96.033 114.136C95.1129 114.136 94.2322 114.017 93.3845 113.774C92.5433 113.524 91.8598 113.196 91.3472 112.801L92.2541 110.797C92.747 111.145 93.3253 111.441 93.9957 111.671C94.6726 111.888 95.3626 112 96.0527 112C96.5784 112 96.999 111.947 97.321 111.849C97.6496 111.737 97.8928 111.592 98.044 111.402C98.1951 111.218 98.274 111.001 98.274 110.758C98.274 110.449 98.1557 110.212 97.9125 110.035C97.6694 109.851 97.3539 109.7 96.9596 109.588C96.5653 109.47 96.125 109.358 95.6452 109.259C95.172 109.148 94.6988 109.016 94.2125 108.865C93.7393 108.714 93.3056 108.517 92.9113 108.273C92.517 108.03 92.1949 107.715 91.9386 107.321C91.6955 106.926 91.5772 106.42 91.5772 105.809C91.5772 105.152 91.7546 104.554 92.1029 104.015C92.4644 103.469 93.0033 103.036 93.7131 102.714C94.436 102.385 95.3429 102.221 96.4273 102.221C97.1502 102.221 97.8599 102.306 98.5631 102.484C99.2663 102.648 99.8841 102.898 100.423 103.239L99.6015 105.264C99.0626 104.955 98.5303 104.731 97.9914 104.587C97.4525 104.435 96.9267 104.357 96.4141 104.357C95.9015 104.357 95.4743 104.416 95.1457 104.541C94.8171 104.665 94.5806 104.823 94.436 105.02C94.2914 105.204 94.2191 105.428 94.2191 105.678C94.2191 105.973 94.3374 106.216 94.5806 106.4C94.8237 106.578 95.1392 106.716 95.5335 106.828C95.9278 106.939 96.3615 107.044 96.8347 107.156C97.3145 107.268 97.7942 107.393 98.2674 107.537C98.7471 107.682 99.1875 107.873 99.5818 108.116C99.9761 108.359 100.292 108.674 100.535 109.069C100.784 109.463 100.916 109.962 100.916 110.567C100.916 111.211 100.732 111.803 100.37 112.341C100.009 112.88 99.4635 113.314 98.7406 113.643C98.0308 113.971 97.1305 114.136 96.033 114.136ZM102.736 113.938V102.438H105.398V113.938H102.736ZM108.125 113.938V102.438H113.35C114.599 102.438 115.703 102.681 116.656 103.16C117.609 103.634 118.351 104.297 118.89 105.152C119.429 106.006 119.698 107.018 119.698 108.195C119.698 109.358 119.429 110.37 118.89 111.237C118.351 112.092 117.609 112.762 116.656 113.242C115.703 113.715 114.599 113.952 113.35 113.952H108.125V113.938ZM110.787 111.757H113.219C113.987 111.757 114.651 111.612 115.21 111.329C115.782 111.034 116.215 110.62 116.524 110.081C116.84 109.542 117.004 108.911 117.004 108.188C117.004 107.452 116.846 106.821 116.524 106.295C116.215 105.756 115.782 105.349 115.21 105.06C114.651 104.764 113.987 104.613 113.219 104.613H110.787V111.757ZM120.027 113.938L125.153 102.438H127.782L132.928 113.938H130.135L125.929 103.785H126.98L122.754 113.938H120.027ZM122.59 111.474L123.3 109.45H129.215L129.937 111.474H122.59ZM134.117 113.938V102.438H139.342C140.591 102.438 141.695 102.681 142.648 103.16C143.6 103.634 144.343 104.297 144.882 105.152C145.421 106.006 145.69 107.018 145.69 108.195C145.69 109.358 145.421 110.37 144.882 111.237C144.343 112.092 143.6 112.762 142.648 113.242C141.695 113.715 140.591 113.952 139.342 113.952H134.117V113.938ZM136.779 111.757H139.21C139.979 111.757 140.643 111.612 141.202 111.329C141.773 111.034 142.207 110.62 142.516 110.081C142.832 109.542 142.996 108.911 142.996 108.188C142.996 107.452 142.838 106.821 142.516 106.295C142.207 105.756 141.773 105.349 141.202 105.06C140.643 104.764 139.979 104.613 139.21 104.613H136.779V111.757ZM0.542969 132.34V120.839H2.74456L9.52678 129.12H8.45556V120.839H11.0843V132.34H8.89588L2.10709 124.059H3.17831V132.34H0.542969ZM12.3001 132.34L17.4262 120.839H20.055L25.2008 132.34H22.4077L18.2017 122.186H19.2532L15.0275 132.34H12.3001ZM14.8632 129.875L15.5729 127.851H21.4877L22.2106 129.875H14.8632ZM31.7333 132.537C30.8461 132.537 30.018 132.392 29.2491 132.11C28.4933 131.814 27.8361 131.4 27.2775 130.861C26.7189 130.322 26.2786 129.691 25.9632 128.968C25.6543 128.246 25.5031 127.45 25.5031 126.583C25.5031 125.715 25.6543 124.92 25.9632 124.197C26.2786 123.474 26.7189 122.843 27.2775 122.304C27.8493 121.766 28.5131 121.358 29.2688 121.069C30.0246 120.773 30.8527 120.622 31.753 120.622C32.7519 120.622 33.6457 120.8 34.4475 121.148C35.2558 121.49 35.9393 121.989 36.4848 122.659L34.7761 124.237C34.3818 123.79 33.9415 123.455 33.4617 123.231C32.982 123.001 32.4562 122.883 31.8845 122.883C31.3456 122.883 30.8527 122.968 30.4058 123.146C29.9589 123.323 29.5646 123.573 29.236 123.901C28.9074 124.23 28.6511 124.618 28.4605 125.071C28.283 125.518 28.1976 126.018 28.1976 126.57C28.1976 127.122 28.283 127.615 28.4605 128.068C28.6445 128.515 28.9074 128.909 29.236 129.238C29.5646 129.566 29.9523 129.816 30.4058 129.994C30.8527 130.171 31.3456 130.257 31.8845 130.257C32.4562 130.257 32.982 130.145 33.4617 129.928C33.9415 129.698 34.3818 129.35 34.7761 128.89L36.4848 130.467C35.9393 131.137 35.2558 131.643 34.4475 131.998C33.6457 132.36 32.7454 132.537 31.7333 132.537ZM38.2789 132.34V120.839H40.9406V132.34H38.2789ZM49.2606 132.537C48.3537 132.537 47.5059 132.386 46.7304 132.09C45.9615 131.794 45.2977 131.38 44.726 130.841C44.1674 130.303 43.727 129.672 43.4116 128.949C43.1027 128.226 42.9516 127.437 42.9516 126.583C42.9516 125.728 43.1027 124.94 43.4116 124.217C43.727 123.494 44.1739 122.863 44.7457 122.324C45.3175 121.785 45.9812 121.371 46.7501 121.076C47.519 120.78 48.3471 120.629 49.2475 120.629C50.1544 120.629 50.989 120.78 51.7448 121.076C52.5137 121.371 53.1775 121.785 53.7361 122.324C54.3078 122.863 54.7482 123.494 55.0702 124.217C55.3856 124.927 55.5499 125.715 55.5499 126.583C55.5499 127.437 55.3922 128.232 55.0702 128.968C54.7547 129.691 54.3078 130.322 53.7361 130.861C53.1775 131.387 52.5137 131.801 51.7448 132.097C50.9824 132.392 50.1544 132.537 49.2606 132.537ZM49.2409 130.27C49.7535 130.27 50.2267 130.184 50.6539 130.007C51.0942 129.829 51.4753 129.58 51.8039 129.251C52.1325 128.922 52.3823 128.535 52.5597 128.081C52.7437 127.634 52.8423 127.135 52.8423 126.583C52.8423 126.031 52.7503 125.538 52.5597 125.084C52.3823 124.638 52.1325 124.243 51.8039 123.915C51.4885 123.586 51.1073 123.336 50.667 123.159C50.2267 122.981 49.7535 122.896 49.2343 122.896C48.7217 122.896 48.242 122.981 47.8016 123.159C47.3745 123.336 46.9933 123.586 46.6647 123.915C46.3361 124.243 46.0798 124.631 45.8892 125.084C45.7118 125.531 45.6263 126.031 45.6263 126.583C45.6263 127.122 45.7118 127.621 45.8892 128.081C46.0732 128.528 46.3295 128.922 46.645 129.251C46.9736 129.58 47.3547 129.829 47.7951 130.007C48.2485 130.184 48.7283 130.27 49.2409 130.27ZM57.5346 132.34V120.839H59.7362L66.5185 129.12H65.4472V120.839H68.076V132.34H65.8876L59.0856 124.059H60.1634V132.34H57.5346ZM69.2918 132.34L74.4179 120.839H77.0467L82.1925 132.34H79.3994L75.1934 122.186H76.2449L72.0192 132.34H69.2918ZM71.8549 129.875L72.5646 127.851H78.4793L79.2023 129.875H71.8549ZM83.382 132.34V120.839H86.0436V130.171H91.8138V132.34H83.382ZM97.9519 132.34V120.839H103.177C104.425 120.839 105.529 121.082 106.482 121.562C107.435 122.035 108.178 122.699 108.717 123.553C109.256 124.408 109.525 125.42 109.525 126.596C109.525 127.759 109.256 128.771 108.717 129.639C108.178 130.493 107.435 131.163 106.482 131.643C105.529 132.116 104.425 132.353 103.177 132.353H97.9519V132.34ZM100.614 130.158H103.045C103.814 130.158 104.478 130.013 105.036 129.731C105.608 129.435 106.042 129.021 106.351 128.482C106.666 127.943 106.831 127.312 106.831 126.589C106.831 125.853 106.673 125.222 106.351 124.697C106.042 124.158 105.608 123.75 105.036 123.461C104.478 123.165 103.814 123.014 103.045 123.014H100.614V130.158ZM113.974 125.472H119.514V127.542H113.974V125.472ZM114.171 130.204H120.434V132.34H111.53V120.839H120.224V122.975H114.178V130.204H114.171ZM129.32 132.537C128.544 132.537 127.821 132.392 127.164 132.11C126.52 131.814 125.988 131.4 125.567 130.861L127.046 129.087C127.361 129.501 127.696 129.823 128.051 130.04C128.4 130.25 128.781 130.355 129.188 130.355C130.273 130.355 130.818 129.718 130.818 128.449V122.975H126.776V120.839H133.467V128.298C133.467 129.724 133.118 130.782 132.415 131.485C131.705 132.189 130.68 132.537 129.32 132.537ZM134.334 132.34L139.46 120.839H142.089L147.235 132.34H144.442L140.236 122.186H141.287L137.061 132.34H134.334ZM136.897 129.875L137.607 127.851H143.522L144.245 129.875H136.897ZM150.876 125.472H156.416V127.542H150.876V125.472ZM151.073 130.204H157.336V132.34H148.431V120.839H157.125V122.975H151.079V130.204H151.073ZM151.29 119.906L153.511 117.54H156.271L153.294 119.906H151.29ZM159.452 132.34V120.839H161.654L168.442 129.12H167.371V120.839H170V132.34H167.811L161.01 124.059H162.081V132.34H159.452Z" fill="white"/>
</svg>
